<?xml version="1.0" standalone="no"?>
<svg version="1.0" xmlns="http://www.w3.org/2000/svg"
 width="151.000000pt" height="151.000000pt" viewBox="0 0 151.000000 151.000000"
 preserveAspectRatio="xMidYMid meet">
<metadata>
Created by potrace 1.16, written by Peter Selinger 2001-2019
</metadata>
<g transform="translate(0.000000,151.000000) scale(0.100000,-0.100000)"
fill="#000000" stroke="none">
<path d="M650 1398 c-64 -11 -130 -56 -165 -112 l-30 -49 -3 -268 c-2 -166 1
-282 7 -307 40 -145 216 -219 350 -147 58 32 95 75 116 136 21 60 21 528 1
587 -41 117 -153 181 -276 160z"/>
<path d="M300 955 c-9 -11 -11 -51 -8 -163 4 -120 9 -157 27 -205 46 -118 147
-210 269 -243 l62 -17 0 -104 0 -103 -84 0 c-85 0 -116 -12 -116 -44 0 -33 23
-36 246 -36 236 0 254 4 239 48 -7 25 -33 32 -122 32 l-73 0 0 104 0 104 48
12 c155 39 273 163 302 319 5 29 10 107 10 171 0 127 -7 145 -52 138 -22 -3
-23 -6 -29 -148 -3 -80 -12 -163 -19 -185 -42 -128 -153 -213 -290 -222 -140
-10 -273 82 -320 222 -8 22 -16 105 -19 185 l-6 145 -26 3 c-14 2 -31 -4 -39
-13z"/>
</g>
</svg>
