<?xml version="1.0" standalone="no"?>
<!DOCTYPE svg PUBLIC "-//W3C//DTD SVG 20010904//EN"
 "http://www.w3.org/TR/2001/REC-SVG-20010904/DTD/svg10.dtd">
<svg version="1.0" xmlns="http://www.w3.org/2000/svg"
 width="151.000000pt" height="151.000000pt" viewBox="0 0 151.000000 151.000000"
 preserveAspectRatio="xMidYMid meet">
<metadata>
Created by potrace 1.16, written by Peter Selinger 2001-2019
</metadata>
<g transform="translate(0.000000,151.000000) scale(0.100000,-0.100000)"
fill="#000000" stroke="none">
<path d="M82 1418 c-7 -7 -12 -18 -12 -26 0 -15 1271 -1296 1303 -1313 24 -14
55 -2 63 23 5 17 -28 55 -194 222 l-201 201 19 35 c27 52 40 139 40 271 0 126
-7 144 -52 137 -23 -3 -23 -6 -29 -153 -5 -136 -20 -225 -39 -225 -4 0 -15 9
-25 20 -17 19 -18 41 -16 299 2 175 -1 293 -8 318 -27 100 -124 174 -230 174
-135 1 -234 -90 -248 -228 l-6 -55 -156 156 c-154 154 -181 172 -209 144z"/>
<path d="M300 951 c-15 -29 -12 -225 5 -305 32 -152 134 -258 295 -306 l55
-16 3 -102 3 -102 -89 0 c-75 0 -92 -3 -106 -19 -14 -15 -15 -24 -6 -40 12
-23 29 -24 320 -21 131 1 160 8 160 36 0 32 -30 44 -116 44 l-84 0 0 103 0
103 73 22 c39 12 83 31 97 41 l25 20 -26 27 -27 26 -68 -27 c-57 -23 -79 -27
-134 -23 -122 9 -215 72 -270 180 -29 59 -30 65 -30 200 0 77 -5 148 -10 159
-6 11 -21 19 -35 19 -14 0 -29 -8 -35 -19z"/>
<path d="M452 778 c4 -125 18 -166 72 -220 66 -67 191 -92 266 -53 l33 17
-184 184 c-101 101 -185 184 -187 184 -3 0 -2 -51 0 -112z"/>
</g>
</svg>
